<svg width="26" height="32" viewBox="0 0 26 32" fill="none" xmlns="http://www.w3.org/2000/svg">
<path d="M21.0921 16.5067C21.1074 15.3169 21.4235 14.1504 22.0108 13.1156C22.5981 12.0809 23.4376 11.2115 24.4512 10.5883C23.8073 9.66869 22.9578 8.91189 21.9702 8.378C20.9827 7.84412 19.8842 7.54785 18.7622 7.51275C16.3686 7.26149 14.0481 8.94504 12.8283 8.94504C11.585 8.94504 9.70703 7.53769 7.68476 7.57929C6.3767 7.62156 5.1019 8.00193 3.98456 8.68336C2.86721 9.36478 1.94544 10.324 1.30904 11.4676C-1.44762 16.2404 0.608609 23.2549 3.24931 27.113C4.57051 29.0021 6.11461 31.1124 8.13506 31.0375C10.1122 30.9555 10.8506 29.7768 13.2371 29.7768C15.6015 29.7768 16.2943 31.0375 18.3558 30.99C20.4773 30.9555 21.814 29.0924 23.0889 27.1854C24.0381 25.8393 24.7686 24.3515 25.2532 22.7773C24.0207 22.256 22.9688 21.3834 22.2289 20.2683C21.4889 19.1532 21.0936 17.8449 21.0921 16.5067Z" fill="#130F49"/>
<path d="M17.1986 4.97555C18.3553 3.58691 18.9252 1.80205 18.7872 0C17.02 0.185615 15.3875 1.03025 14.2151 2.36561C13.6419 3.01797 13.2029 3.77691 12.9232 4.59904C12.6434 5.42117 12.5285 6.29037 12.5849 7.15695C13.4688 7.16605 14.3433 6.97446 15.1425 6.5966C15.9416 6.21875 16.6446 5.66448 17.1986 4.97555Z" fill="#130F49"/>
</svg>
