<svg width="26" height="32" viewBox="0 0 26 32" fill="none" xmlns="http://www.w3.org/2000/svg">
<path d="M21.0921 16.5065C21.1074 15.3168 21.4235 14.1503 22.0108 13.1155C22.5981 12.0807 23.4376 11.2113 24.4512 10.5882C23.8073 9.66857 22.9578 8.91177 21.9702 8.37788C20.9827 7.84399 19.8842 7.54773 18.7622 7.51262C16.3686 7.26137 14.0481 8.94491 12.8283 8.94491C11.585 8.94491 9.70703 7.53757 7.68476 7.57917C6.3767 7.62143 5.1019 8.00181 3.98456 8.68323C2.86721 9.36466 1.94544 10.3239 1.30904 11.4675C-1.44762 16.2403 0.608609 23.2548 3.24931 27.1128C4.57051 29.002 6.11461 31.1122 8.13506 31.0374C10.1122 30.9554 10.8506 29.7767 13.2371 29.7767C15.6015 29.7767 16.2943 31.0374 18.3558 30.9898C20.4773 30.9554 21.814 29.0923 23.0889 27.1852C24.0381 25.8391 24.7686 24.3514 25.2532 22.7772C24.0207 22.2558 22.9688 21.3832 22.2289 20.2681C21.4889 19.1531 21.0936 17.8448 21.0921 16.5065Z" fill="white"/>
<path d="M17.1986 4.97555C18.3553 3.58691 18.9252 1.80205 18.7872 0C17.02 0.185615 15.3875 1.03025 14.2151 2.36561C13.6419 3.01797 13.2029 3.77691 12.9232 4.59904C12.6434 5.42117 12.5285 6.29037 12.5849 7.15695C13.4688 7.16605 14.3433 6.97446 15.1425 6.5966C15.9416 6.21875 16.6446 5.66448 17.1986 4.97555Z" fill="white"/>
</svg>
