<svg width="1435" height="1378" viewBox="0 0 1435 1378" fill="none" xmlns="http://www.w3.org/2000/svg">
<path fill-rule="evenodd" clip-rule="evenodd" d="M630.071 171.254C769.069 148.115 899.108 0.0615277 1026.98 59.3118C1153.89 118.119 1134.92 306.357 1194.67 432.87C1252.72 555.778 1375.69 653.256 1371.66 789.125C1367.43 931.287 1281.34 1062.61 1173.21 1154.94C1069.28 1243.69 930.511 1274.14 794.1 1282.32C667.135 1289.94 529.032 1280.75 431.18 1199.45C339.638 1123.38 364.669 977.523 304.016 875.098C235.11 758.735 70.7822 700.902 56.3289 566.434C41.2421 426.071 114.361 271.94 230.582 191.89C343.158 114.35 495.241 193.7 630.071 171.254Z" fill="#D9F4FF"/>
</svg>
