<svg width="1246" height="1261" viewBox="0 0 1246 1261" fill="none" xmlns="http://www.w3.org/2000/svg">
<path opacity="0.8" fill-rule="evenodd" clip-rule="evenodd" d="M951.516 829.504C897.826 917.71 917.739 1060.73 823.657 1103.33C730.278 1145.61 634.905 1044.98 536.102 1017.58C440.116 990.964 327.163 1012.55 253.701 945.274C176.836 874.886 145.175 764.255 145.692 660.063C146.19 559.908 195.712 468.33 256.465 388.719C313.01 314.62 384.209 242.382 476.164 227.001C562.189 212.612 631.145 296.316 717.012 311.684C814.564 329.144 925.311 265.639 1006.85 321.981C1091.96 380.793 1142.49 495.141 1131.28 597.948C1120.42 697.531 1003.6 743.943 951.516 829.504Z" fill="#FEDFB1"/>
</svg>
