<svg width="20" height="20" viewBox="0 0 20 20" fill="none" xmlns="http://www.w3.org/2000/svg">
<path d="M2.97856 0.980469C2.58086 0.980961 2.19233 1.1 1.86262 1.32237C1.5329 1.54475 1.27695 1.86037 1.12748 2.22891C0.97801 2.59746 0.941796 3.00219 1.02346 3.39142C1.10513 3.78064 1.30098 4.13668 1.58598 4.41406L7.17192 10L1.58598 15.5859C1.39404 15.7702 1.24079 15.991 1.13522 16.2352C1.02965 16.4795 0.97388 16.7423 0.971173 17.0084C0.968466 17.2745 1.01888 17.5385 1.11946 17.7848C1.22003 18.0312 1.36876 18.255 1.55691 18.4431C1.74507 18.6313 1.96888 18.78 2.21524 18.8806C2.46159 18.9812 2.72554 19.0316 2.99162 19.0289C3.2577 19.0262 3.52057 18.9704 3.76482 18.8648C4.00908 18.7593 4.22982 18.606 4.41411 18.4141L10 12.8281L15.586 18.4141C15.7703 18.606 15.991 18.7593 16.2353 18.8648C16.4795 18.9704 16.7424 19.0262 17.0085 19.0289C17.2746 19.0316 17.5385 18.9812 17.7849 18.8806C18.0312 18.78 18.255 18.6313 18.4432 18.4431C18.6313 18.255 18.7801 18.0312 18.8806 17.7848C18.9812 17.5385 19.0316 17.2745 19.0289 17.0084C19.0262 16.7423 18.9704 16.4795 18.8649 16.2352C18.7593 15.991 18.6061 15.7702 18.4141 15.5859L12.8282 10L18.4141 4.41406C18.7031 4.13314 18.9005 3.77146 18.9804 3.37642C19.0603 2.98138 19.0191 2.57141 18.862 2.20024C18.7049 1.82907 18.4393 1.51401 18.1001 1.29635C17.7609 1.07869 17.3638 0.968588 16.961 0.980469C16.4414 0.995951 15.9482 1.21311 15.586 1.58594L10 7.17188L4.41411 1.58594C4.2275 1.39411 4.00429 1.24169 3.75771 1.13769C3.51112 1.03368 3.24618 0.980223 2.97856 0.980469V0.980469Z" fill="black"/>
</svg>
