<svg width="21" height="21" viewBox="0 0 21 21" fill="none" xmlns="http://www.w3.org/2000/svg">
<path d="M3.65217 7.30435C5.66921 7.30435 7.30435 5.66921 7.30435 3.65217C7.30435 1.63513 5.66921 0 3.65217 0C1.63513 0 0 1.63513 0 3.65217C0 5.66921 1.63513 7.30435 3.65217 7.30435Z" fill="#0B0736"/>
<path d="M3.65217 21C5.66921 21 7.30435 19.3649 7.30435 17.3478C7.30435 15.3308 5.66921 13.6956 3.65217 13.6956C1.63513 13.6956 0 15.3308 0 17.3478C0 19.3649 1.63513 21 3.65217 21Z" fill="#0B0736"/>
<path d="M17.3479 7.30435C19.3649 7.30435 21 5.66921 21 3.65217C21 1.63513 19.3649 0 17.3479 0C15.3308 0 13.6957 1.63513 13.6957 3.65217C13.6957 5.66921 15.3308 7.30435 17.3479 7.30435Z" fill="#0B0736"/>
<path d="M17.3479 21C19.3649 21 21 19.3649 21 17.3478C21 15.3308 19.3649 13.6956 17.3479 13.6956C15.3308 13.6956 13.6957 15.3308 13.6957 17.3478C13.6957 19.3649 15.3308 21 17.3479 21Z" fill="#0B0736"/>
</svg>
