<svg width="36" height="36" viewBox="0 0 36 36" fill="none" xmlns="http://www.w3.org/2000/svg">
<path d="M12.2774 16.1249C12.4574 16.1474 12.6299 16.1549 12.8099 16.1549C13.9199 16.1549 14.9849 15.7799 15.8549 15.0749C16.8674 14.2574 17.5049 13.0949 17.6474 11.7974C17.7899 10.4999 17.4149 9.2324 16.5974 8.2199C14.9099 6.1274 11.8349 5.7974 9.74242 7.4849C8.72992 8.3024 8.09242 9.4649 7.94992 10.7624C7.80742 12.0599 8.18242 13.3274 8.99992 14.3399C9.82492 15.3524 10.9874 15.9899 12.2774 16.1249ZM10.1924 11.0024C10.2674 10.3049 10.6124 9.6824 11.1524 9.2399C11.6249 8.8574 12.1949 8.6624 12.7949 8.6624C12.8924 8.6624 12.9824 8.6699 13.0799 8.6774C13.7774 8.7524 14.3999 9.0974 14.8424 9.6449C15.2849 10.1924 15.4799 10.8749 15.4049 11.5724C15.3299 12.2699 14.9849 12.8924 14.4449 13.3349C13.9049 13.7774 13.2149 13.9724 12.5174 13.8974C11.8199 13.8224 11.1974 13.4774 10.7549 12.9299C10.3199 12.3824 10.1174 11.6999 10.1924 11.0024Z" fill="#130F49"/>
<path d="M27.4199 21.6598C25.7324 19.5673 22.6574 19.2373 20.5649 20.9248C19.5524 21.7423 18.9149 22.9048 18.7724 24.2023C18.6299 25.4998 19.0049 26.7673 19.8224 27.7798C20.6399 28.7923 21.8024 29.4298 23.0999 29.5723C23.2799 29.5948 23.4524 29.6023 23.6324 29.6023C24.7424 29.6023 25.8074 29.2273 26.6774 28.5223C28.7699 26.8273 29.1074 23.7523 27.4199 21.6598ZM25.2674 26.7598C24.7199 27.2023 24.0374 27.3973 23.3399 27.3223C22.6424 27.2473 22.0199 26.9023 21.5774 26.3548C21.1349 25.8073 20.9399 25.1248 21.0149 24.4273C21.0899 23.7298 21.4349 23.1073 21.9749 22.6648C22.4624 22.2748 23.0399 22.0873 23.6174 22.0873C24.3824 22.0873 25.1474 22.4248 25.6649 23.0623C26.5724 24.1948 26.3924 25.8523 25.2674 26.7598Z" fill="#130F49"/>
<path d="M28.2 9.47238C27.81 8.98488 27.105 8.90988 26.6175 9.29988L7.92745 24.3599C7.43995 24.7499 7.36495 25.4549 7.75495 25.9424C7.97995 26.2199 8.30245 26.3624 8.63245 26.3624C8.87995 26.3624 9.12745 26.2799 9.33745 26.1149L28.0275 11.0624C28.515 10.6649 28.59 9.95988 28.2 9.47238Z" fill="#130F49"/>
</svg>
