<svg width="36" height="36" viewBox="0 0 36 36" fill="none" xmlns="http://www.w3.org/2000/svg">
<path d="M18 13.125C15.315 13.125 13.125 15.315 13.125 18C13.125 20.685 15.315 22.875 18 22.875C20.685 22.875 22.875 20.685 22.875 18C22.875 15.315 20.685 13.125 18 13.125ZM18 20.625C16.5525 20.625 15.375 19.4475 15.375 18C15.375 16.5525 16.5525 15.375 18 15.375C19.4475 15.375 20.625 16.5525 20.625 18C20.625 19.4475 19.4475 20.625 18 20.625Z" fill="#130F49"/>
<path d="M3 12.375C3.6225 12.375 4.125 11.8725 4.125 11.25V6.375H8.99999C9.62249 6.375 10.125 5.8725 10.125 5.25C10.125 4.6275 9.62249 4.125 8.99999 4.125H3C2.3775 4.125 1.875 4.6275 1.875 5.25V11.25C1.875 11.8725 2.3775 12.375 3 12.375Z" fill="#130F49"/>
<path d="M3 31.875H8.99999C9.62249 31.875 10.125 31.3725 10.125 30.75C10.125 30.1275 9.62249 29.625 8.99999 29.625H4.125V24.75C4.125 24.1275 3.6225 23.625 3 23.625C2.3775 23.625 1.875 24.1275 1.875 24.75V30.75C1.875 31.3725 2.3775 31.875 3 31.875Z" fill="#130F49"/>
<path d="M33 23.625C32.3775 23.625 31.875 24.1275 31.875 24.75V29.625H27C26.3775 29.625 25.875 30.1275 25.875 30.75C25.875 31.3725 26.3775 31.875 27 31.875H33C33.6225 31.875 34.125 31.3725 34.125 30.75V24.75C34.125 24.1275 33.6225 23.625 33 23.625Z" fill="#130F49"/>
<path d="M33 4.125H27C26.3775 4.125 25.875 4.6275 25.875 5.25C25.875 5.8725 26.3775 6.375 27 6.375H31.875V11.25C31.875 11.8725 32.3775 12.375 33 12.375C33.6225 12.375 34.125 11.8725 34.125 11.25V5.25C34.125 4.6275 33.6225 4.125 33 4.125Z" fill="#130F49"/>
</svg>
